# xmcd
#
# Track frame offsets:
#	150
#	16173
#	25915
#	39815
#	52878
#	69168
#	82798
#	86390
#	102535
#	117565
#	140328
#
# Disc length: 2162 seconds
#
# Revision: 1
# Processed by: cddbd v1.4PL0 Copyright (c) Steve Scherf et al.
# Submitted via: EasyCDDAExtractor 5.1.0
#
DISCID=7908700b
DTITLE=Eagles - Desperado
DYEAR=1900
DGENRE=Country
TTITLE0=Doolin - Dalton
TTITLE1=Twenty - One
TTITLE2=Out Of Control
TTITLE3=Tequila Sunrise
TTITLE4=Desperado
TTITLE5=Certain Kind Of Fool
TTITLE6=Doolin' Dalton (Inst.)
TTITLE7=Outlaw Man
TTITLE8=Saturday Night
TTITLE9=Bitter Creek
TTITLE10=Doolin' Dalton/ Desperado Reprise
EXTD=
EXTT0=
EXTT1=
EXTT2=
EXTT3=
EXTT4=
EXTT5=
EXTT6=
EXTT7=
EXTT8=
EXTT9=
EXTT10=
PLAYORDER=
